# xmcd
#
# Track frame offsets:
#	150
#	13069
#	27809
#	37640
#	54133
#	66365
#	80371
#	91873
#	101652
#	118049
#
# Disc length: 1713 seconds
#
# Revision: 1
# Processed by: cddbd v1.4PL0 Copyright (c) Steve Scherf et al.
# Submitted via: EasyCDDAExtractor 5.0.7
#
DISCID=6c06af0a
DTITLE=Merle Haggard
DYEAR=2003
DGENRE=Country
TTITLE0=Swinging Doors
TTITLE1=I'm a Lonesome Fugitive
TTITLE2=Mama Tried
TTITLE3=Hungry Eyes
TTITLE4=I Take a Lot of Pride in What I Am
TTITLE5=I Threw Away the Rose
TTITLE6=(My Friends are Gonna Be) Strangers
TTITLE7=The Legend of Bonnie and Clyde
TTITLE8=Ramblin' Fever
TTITLE9=Someday We'll Look Back
EXTD=
EXTT0=
EXTT1=
EXTT2=
EXTT3=
EXTT4=
EXTT5=
EXTT6=
EXTT7=
EXTT8=
EXTT9=
PLAYORDER=
